<svg xmlns="http://www.w3.org/2000/svg" version="1.1" xmlns:xlink="http://www.w3.org/1999/xlink" xmlns:svgjs="http://svgjs.dev/svgjs" width="1500" height="1500" viewBox="0 0 1500 1500"><rect width="1500" height="1500" fill="#000000"></rect><g transform="matrix(0.6666666666666666,0,0,0.6666666666666666,249.39393939393938,646.3943324370865)"><svg viewBox="0 0 396 82" data-background-color="#ffffff" preserveAspectRatio="xMidYMid meet" height="310" width="1500" xmlns="http://www.w3.org/2000/svg" xmlns:xlink="http://www.w3.org/1999/xlink"><g id="tight-bounds" transform="matrix(1,0,0,1,0.2400000000000091,0.10805519431727362)"><svg viewBox="0 0 395.52 81.78388961136544" height="81.78388961136544" width="395.52"><g><svg viewBox="0 0 488.5396801028102 101.01809078757084" height="81.78388961136544" width="395.52"><g transform="matrix(1,0,0,1,0,13.961255673246043)"><svg viewBox="0 0 395.52 73.09557944107875" height="73.09557944107875" width="395.52"><g id="textblocktransform"><svg viewBox="0 0 395.52 73.09557944107875" height="73.09557944107875" width="395.52" id="textblock"><g><svg viewBox="0 0 395.52 73.09557944107875" height="73.09557944107875" width="395.52"><g transform="matrix(1,0,0,1,0,0)"><svg width="395.52" viewBox="1.75 -32.45 241.78 44.501961786097006" height="73.09557944107875" data-palette-color="#707070"><g class="wordmark-text-0" data-fill-palette-color="primary" id="text-0"><path d="M16.35 0.6Q11.1 0.6 8.25-2.27 5.4-5.15 5.4-10.45L5.4-10.45 5.4-27Q5.4-28.6 5.03-29.15 4.65-29.7 3.55-29.7L3.55-29.7Q3.05-29.7 2.55-29.65 2.05-29.6 1.85-29.6L1.85-29.6 1.75-29.8 2.1-32Q2.7-31.95 4.38-31.9 6.05-31.85 7.75-31.85L7.75-31.85Q9.1-31.85 10.8-32.02 12.5-32.2 13-32.3L13-32.3 12.8-30.05Q10.95-29.8 10.33-29.23 9.7-28.65 9.6-27.2L9.6-27.2 9.2-12.5Q9.2-7.55 11.35-4.9 13.5-2.25 17.55-2.25L17.55-2.25Q21.65-2.25 23.8-4.42 25.95-6.6 25.95-10.7L25.95-10.7Q25.9-14.7 25.8-19.83 25.7-24.95 25.65-27L25.65-27Q25.55-28.75 25.23-29.23 24.9-29.7 23.8-29.7L23.8-29.7Q23.2-29.7 22.55-29.65 21.9-29.6 21.65-29.6L21.65-29.6 21.55-29.8 21.9-32Q22.5-31.95 24.18-31.9 25.85-31.85 27.55-31.85L27.55-31.85Q28.9-31.85 30.43-32.02 31.95-32.2 32.4-32.3L32.4-32.3 32.2-30.05Q30.7-29.85 29.98-29.58 29.25-29.3 29-28.78 28.75-28.25 28.75-27.2L28.75-27.2 28.75-10.4Q28.75-5.15 25.5-2.27 22.25 0.6 16.35 0.6L16.35 0.6ZM42.6 0.6Q41 0.6 39.67 0.38 38.35 0.15 37.6-0.1 36.85-0.35 36.65-0.45L36.65-0.45 36.5-0.8Q36.65-1.55 36.85-3.9 37.05-6.25 37.1-7.5L37.1-7.5 38.85-7.75Q38.85-4.45 39.95-3.1 41.05-1.75 43.7-1.75L43.7-1.75Q45.6-1.75 46.9-2.6 48.2-3.45 48.2-4.7L48.2-4.7Q48.2-5.95 47.02-6.98 45.85-8 42.4-9.85L42.4-9.85Q39.55-11.3 38.25-12.8 36.95-14.3 36.95-16.1L36.95-16.1Q36.95-18.1 38.15-19.73 39.35-21.35 41.45-22.28 43.55-23.2 46.15-23.2L46.15-23.2Q47.35-23.2 48.45-23.03 49.55-22.85 50.25-22.65 50.95-22.45 51.15-22.4L51.15-22.4 51.25-22.15Q51.15-21.65 50.8-19.88 50.45-18.1 50.3-16.05L50.3-16.05 48.45-15.9Q48.45-16.05 48.5-16.5 48.55-16.95 48.55-17.35L48.55-17.35Q48.55-19.15 47.57-19.98 46.6-20.8 44.45-20.8L44.45-20.8Q42.75-20.8 41.57-20 40.4-19.2 40.4-18.05L40.4-18.05Q40.4-16.85 41.42-15.8 42.45-14.75 44.75-13.55L44.75-13.55Q48.8-11.4 50.27-9.93 51.75-8.45 51.75-6.55L51.75-6.55Q51.75-4.65 50.5-3 49.25-1.35 47.12-0.38 45 0.6 42.6 0.6L42.6 0.6ZM66.45 0.6Q63.35 0.6 60.95-0.78 58.55-2.15 57.25-4.67 55.95-7.2 55.95-10.45L55.95-10.45Q55.95-13.8 57.47-16.75 59-19.7 61.55-21.45 64.1-23.2 67-23.2L67-23.2Q70.65-23.2 72.55-21.35 74.45-19.5 74.45-15.95L74.45-15.95Q74.45-14.5 74.15-13.5L74.15-13.5 73.5-12.9 59.7-12.9Q59.65-8.05 61.62-5.43 63.6-2.8 67.15-2.8L67.15-2.8Q69.95-2.8 73.25-4.35L73.25-4.35 73.55-4.25 74.1-2.8Q72.3-1.5 70.12-0.45 67.95 0.6 66.45 0.6L66.45 0.6ZM59.9-14.75L68.95-15.2Q69.7-15.3 69.95-15.55 70.2-15.8 70.2-16.55L70.2-16.55Q70.2-18.55 69.12-19.6 68.05-20.65 66.05-20.65L66.05-20.65Q63.7-20.65 62.02-19.05 60.35-17.45 59.9-14.75L59.9-14.75ZM79.49-1.8Q80.99-1.95 81.49-2.78 81.99-3.6 81.99-5.95L81.99-5.95 81.99-16.95Q81.99-18.6 81.54-19.3 81.09-20 80.09-20L80.09-20Q79.69-20 79.42-19.95 79.14-19.9 79.04-19.85L79.04-19.85 78.79-20.2 78.94-21.75Q80.84-22.1 82.97-22.6 85.09-23.1 85.69-23.25L85.69-23.25 86.04-22.95Q85.94-22.5 85.74-20.88 85.54-19.25 85.59-17.8L85.59-17.8 85.79-17.65Q87.29-20 89.32-21.5 91.34-23 92.84-23L92.84-23Q93.54-23 93.92-22.93 94.29-22.85 94.39-22.8L94.39-22.8 94.54-22.6Q94.44-21.9 94.12-19.63 93.79-17.35 93.74-15.45L93.74-15.45 91.79-15.3Q91.79-17.35 91.52-18.03 91.24-18.7 90.44-18.7L90.44-18.7Q89.34-18.7 88.09-17.78 86.84-16.85 85.79-15.3L85.79-15.3Q85.74-13.85 85.59-10.5 85.44-7.15 85.39-5.1L85.39-5.1Q85.39-3.4 85.89-2.8 86.39-2.2 87.79-2.2L87.79-2.2Q88.44-2.2 89.09-2.25 89.74-2.3 89.99-2.3L89.99-2.3 90.04-2.1 89.59 0.1Q89.09 0.1 87.59 0.05 86.09 0 84.49 0L84.49 0Q82.64 0 81.14 0.08 79.64 0.15 79.24 0.2L79.24 0.2 79.49-1.8ZM106.64 0.6Q104.54 0.6 102.79 0.23 101.04-0.15 99.92-0.6 98.79-1.05 98.79-1.1L98.79-1.1 98.54-1.6Q98.59-1.9 98.74-3.1 98.89-4.3 99.02-6.23 99.14-8.15 99.14-10.3L99.14-10.3 101.39-10.55Q101.39-6.8 101.89-5 102.39-3.2 103.74-2.53 105.09-1.85 107.89-1.85L107.89-1.85Q111.04-1.85 112.94-3.33 114.84-4.8 114.84-7.35L114.84-7.35Q114.84-8.85 113.82-10.05 112.79-11.25 111.39-12.1 109.99-12.95 107.24-14.4L107.24-14.4Q104.64-15.75 102.99-16.88 101.34-18 100.22-19.55 99.09-21.1 99.09-23.15L99.09-23.15Q99.09-25.75 100.62-27.88 102.14-30 104.77-31.23 107.39-32.45 110.59-32.45L110.59-32.45Q112.59-32.45 114.29-32.18 115.99-31.9 116.99-31.6 117.99-31.3 118.24-31.2L118.24-31.2 118.39-30.9Q118.34-30.6 118.14-29.5 117.94-28.4 117.69-26.45 117.44-24.5 117.29-22.45L117.29-22.45 115.34-22.25 115.04-22.5Q115.09-22.7 115.14-23.43 115.19-24.15 115.19-25.1L115.19-25.1Q115.19-27.75 113.89-28.75 112.59-29.75 109.24-29.75L109.24-29.75Q106.49-29.75 104.72-28.38 102.94-27 102.94-24.95L102.94-24.95Q102.94-22.95 104.67-21.48 106.39-20 109.74-18.25L109.74-18.25Q112.99-16.6 114.69-15.53 116.39-14.45 117.69-12.85 118.99-11.25 118.99-9.15L118.99-9.15Q118.99-6.35 117.42-4.13 115.84-1.9 113.04-0.65 110.24 0.6 106.64 0.6L106.64 0.6ZM123.99 12.05Q123.59 12.05 122.69 10.88 121.79 9.7 121.79 9.2L121.79 9.2 122.04 8.85Q124.84 8.85 127.26 6.53 129.69 4.2 131.44 0L131.44 0Q127.59-12.2 125.24-18.4L125.24-18.4Q124.79-19.65 123.96-20.2 123.14-20.75 121.84-20.8L121.84-20.8 121.74-21 122.04-22.65 126.19-22.6Q128.04-22.6 129.86-22.75 131.69-22.9 132.19-22.95L132.19-22.95 132.29-22.7 131.99-21.15Q130.29-21.1 129.71-20.83 129.14-20.55 129.14-19.85L129.14-19.85Q129.14-19.05 130.11-15.7 131.09-12.35 132.14-9.03 133.19-5.7 133.54-4.7L133.54-4.7 133.74-4.7Q139.49-18.45 139.49-19.65L139.49-19.65Q139.49-20.95 137.59-20.95L137.59-20.95 135.29-20.95 135.19-21.15 135.49-22.8Q135.94-22.75 137.49-22.68 139.04-22.6 140.59-22.6L140.59-22.6 144.84-22.65 144.49-20.8Q143.39-20.6 142.81-20.03 142.24-19.45 141.69-17.95L141.69-17.95 135.34-2.75Q132.74 3.55 131.09 6.6 129.44 9.65 127.84 10.88 126.24 12.1 123.99 12.05L123.99 12.05ZM153.04 0.6Q151.44 0.6 150.11 0.38 148.79 0.15 148.04-0.1 147.29-0.35 147.09-0.45L147.09-0.45 146.94-0.8Q147.09-1.55 147.29-3.9 147.49-6.25 147.54-7.5L147.54-7.5 149.29-7.75Q149.29-4.45 150.39-3.1 151.49-1.75 154.14-1.75L154.14-1.75Q156.04-1.75 157.34-2.6 158.64-3.45 158.64-4.7L158.64-4.7Q158.64-5.95 157.46-6.98 156.29-8 152.84-9.85L152.84-9.85Q149.99-11.3 148.69-12.8 147.39-14.3 147.39-16.1L147.39-16.1Q147.39-18.1 148.59-19.73 149.79-21.35 151.89-22.28 153.99-23.2 156.59-23.2L156.59-23.2Q157.79-23.2 158.89-23.03 159.99-22.85 160.69-22.65 161.39-22.45 161.59-22.4L161.59-22.4 161.69-22.15Q161.59-21.65 161.24-19.88 160.89-18.1 160.74-16.05L160.74-16.05 158.89-15.9Q158.89-16.05 158.94-16.5 158.99-16.95 158.99-17.35L158.99-17.35Q158.99-19.15 158.01-19.98 157.04-20.8 154.89-20.8L154.89-20.8Q153.19-20.8 152.01-20 150.84-19.2 150.84-18.05L150.84-18.05Q150.84-16.85 151.86-15.8 152.89-14.75 155.19-13.55L155.19-13.55Q159.24-11.4 160.71-9.93 162.19-8.45 162.19-6.55L162.19-6.55Q162.19-4.65 160.94-3 159.69-1.35 157.56-0.38 155.44 0.6 153.04 0.6L153.04 0.6ZM174.88 0.6Q171.48 0.6 170.08-0.78 168.68-2.15 168.68-5.45L168.68-5.45 168.68-17.75Q168.68-19.1 168.08-19.65 167.48-20.2 165.83-20.25L165.83-20.25 165.63-20.55 165.88-22.05Q167.33-22.75 168.71-23.78 170.08-24.8 170.96-25.58 171.83-26.35 172.08-26.6L172.08-26.6 173.08-26.2Q173.03-25.95 172.93-25 172.83-24.05 172.68-22.45L172.68-22.45 180.03-22.6 180.18-22.45 179.73-19.8 172.48-19.95Q172.13-14.45 172.13-7.45L172.13-7.45Q172.13-4.9 173.01-3.85 173.88-2.8 176.03-2.8L176.03-2.8Q176.78-2.8 177.53-3 178.28-3.2 178.78-3.43 179.28-3.65 179.43-3.7L179.43-3.7 179.93-2.4Q179.63-2.15 178.66-1.45 177.68-0.75 176.56-0.08 175.43 0.6 174.88 0.6L174.88 0.6ZM193.38 0.6Q190.28 0.6 187.88-0.78 185.48-2.15 184.18-4.67 182.88-7.2 182.88-10.45L182.88-10.45Q182.88-13.8 184.41-16.75 185.93-19.7 188.48-21.45 191.03-23.2 193.93-23.2L193.93-23.2Q197.58-23.2 199.48-21.35 201.38-19.5 201.38-15.95L201.38-15.95Q201.38-14.5 201.08-13.5L201.08-13.5 200.43-12.9 186.63-12.9Q186.58-8.05 188.56-5.43 190.53-2.8 194.08-2.8L194.08-2.8Q196.88-2.8 200.18-4.35L200.18-4.35 200.48-4.25 201.03-2.8Q199.23-1.5 197.06-0.45 194.88 0.6 193.38 0.6L193.38 0.6ZM186.83-14.75L195.88-15.2Q196.63-15.3 196.88-15.55 197.13-15.8 197.13-16.55L197.13-16.55Q197.13-18.55 196.06-19.6 194.98-20.65 192.98-20.65L192.98-20.65Q190.63-20.65 188.96-19.05 187.28-17.45 186.83-14.75L186.83-14.75ZM219.73-1.45Q221.23-1.85 221.88-2.63 222.53-3.4 222.53-4.7L222.53-4.7 222.73-14.6Q222.73-17.1 221.65-18.45 220.58-19.8 218.58-19.8L218.58-19.8Q216.98-19.8 215.33-18.98 213.68-18.15 212.43-17.2L212.43-17.2Q211.98-6.85 211.98-4.9L211.98-4.9Q211.98-3.35 212.38-2.73 212.78-2.1 213.78-2.1L213.78-2.1Q214.33-2.1 214.83-2.15 215.33-2.2 215.53-2.2L215.53-2.2 215.63-2 215.18 0.15Q214.73 0.1 213.43 0.05 212.13 0 210.63 0L210.63 0Q208.98 0 207.58 0.05 206.18 0.1 205.68 0.1L205.68 0.1 205.98-1.95Q207.43-2.1 208-2.7 208.58-3.3 208.58-4.7L208.58-4.7 208.58-16.9Q208.58-18.6 208.03-19.28 207.48-19.95 206.13-19.95L206.13-19.95 205.58-19.95 205.43-20.15 205.58-21.8Q207.73-22.15 209.85-22.63 211.98-23.1 212.58-23.25L212.58-23.25 212.88-22.85Q212.78-22.55 212.58-21.58 212.38-20.6 212.33-19.55L212.33-19.55 212.43-19.4Q218.03-23.2 219.78-23.2L219.78-23.2Q222.18-23.2 223.83-22.18 225.48-21.15 226.18-19.25L226.18-19.25Q227.98-20.55 230.23-21.88 232.48-23.2 233.73-23.2L233.73-23.2Q236.88-23.2 238.73-21.45 240.58-19.7 240.58-16.75L240.58-16.75Q240.58-16.25 240.28-12.15L240.28-12.15Q239.88-6.95 239.88-4.9L239.88-4.9Q239.88-3.35 240.28-2.73 240.68-2.1 241.68-2.1L241.68-2.1Q242.23-2.1 242.73-2.15 243.23-2.2 243.43-2.2L243.43-2.2 243.53-2 243.08 0.15Q242.63 0.1 241.33 0.05 240.03 0 238.53 0L238.53 0Q237.23 0 235.65 0.13 234.08 0.25 233.58 0.3L233.58 0.3 233.83-1.75Q235.28-2 235.88-2.65 236.48-3.3 236.48-4.7L236.48-4.7 236.68-14.6Q236.68-17.1 235.6-18.45 234.53-19.8 232.53-19.8L232.53-19.8Q229.93-19.8 226.48-17.3L226.48-17.3 225.93-4.9Q225.93-3.45 226.33-2.78 226.73-2.1 227.68-2.1L227.68-2.1Q228.23-2.1 228.73-2.15 229.23-2.2 229.43-2.2L229.43-2.2 229.53-2 229.13 0.15Q228.68 0.1 227.43 0.05 226.18 0 224.68 0L224.68 0Q223.38 0 221.7 0.25 220.03 0.5 219.53 0.6L219.53 0.6 219.73-1.45Z" fill="#ffffff" data-fill-palette-color="primary"></path></g></svg></g></svg></g></svg></g></svg></g><g transform="matrix(1,0,0,1,412.7761120121321,0)"><svg viewBox="0 0 75.76356809067813 101.01809078757084" height="101.01809078757084" width="75.76356809067813"><g><svg xmlns="http://www.w3.org/2000/svg" xmlns:xlink="http://www.w3.org/1999/xlink" version="1.1" x="0" y="0" viewBox="0 0 75 100" style="enable-background:new 0 0 75 100;" xml:space="preserve" height="101.01809078757084" width="75.76356809067813" class="icon-icon-0" data-fill-palette-color="accent" id="icon-0"><path d="M37.5 50C16.797 50 0 66.797 0 87.5 0 94.409 5.591 100 12.5 100h50c6.909 0 12.5-5.591 12.5-12.5C75 66.797 58.203 50 37.5 50z" fill="#ffffff" data-fill-palette-color="accent"></path><path d="M56.25 18.75c0 10.352-8.398 18.75-18.75 18.75s-18.75-8.398-18.75-18.75S27.148 0 37.5 0 56.25 8.398 56.25 18.75z" fill="#ffffff" data-fill-palette-color="accent"></path></svg></g></svg></g></svg></g><defs></defs></svg><rect width="395.52" height="81.78388961136544" fill="none" stroke="none" visibility="hidden"></rect></g></svg></g></svg>